<?xml version="1.0" encoding="utf-8"?>
<svg xmlns="http://www.w3.org/2000/svg" xmlns:xlink="http://www.w3.org/1999/xlink" style="margin: auto; background: rgb(241, 242, 243); display: block; shape-rendering: auto;" width="263px" height="263px" viewBox="0 0 100 100" preserveAspectRatio="xMidYMid">
<g transform="rotate(0 50 50)">
  <rect x="47" y="24" rx="3" ry="6" width="6" height="12" fill="#1d0e0b">
    <animate attributeName="opacity" values="1;0" keyTimes="0;1" dur="2.6315789473684212s" begin="-2.4122807017543857s" repeatCount="indefinite"></animate>
  </rect>
</g><g transform="rotate(30 50 50)">
  <rect x="47" y="24" rx="3" ry="6" width="6" height="12" fill="#1d0e0b">
    <animate attributeName="opacity" values="1;0" keyTimes="0;1" dur="2.6315789473684212s" begin="-2.1929824561403506s" repeatCount="indefinite"></animate>
  </rect>
</g><g transform="rotate(60 50 50)">
  <rect x="47" y="24" rx="3" ry="6" width="6" height="12" fill="#1d0e0b">
    <animate attributeName="opacity" values="1;0" keyTimes="0;1" dur="2.6315789473684212s" begin="-1.9736842105263155s" repeatCount="indefinite"></animate>
  </rect>
</g><g transform="rotate(90 50 50)">
  <rect x="47" y="24" rx="3" ry="6" width="6" height="12" fill="#1d0e0b">
    <animate attributeName="opacity" values="1;0" keyTimes="0;1" dur="2.6315789473684212s" begin="-1.7543859649122806s" repeatCount="indefinite"></animate>
  </rect>
</g><g transform="rotate(120 50 50)">
  <rect x="47" y="24" rx="3" ry="6" width="6" height="12" fill="#1d0e0b">
    <animate attributeName="opacity" values="1;0" keyTimes="0;1" dur="2.6315789473684212s" begin="-1.5350877192982455s" repeatCount="indefinite"></animate>
  </rect>
</g><g transform="rotate(150 50 50)">
  <rect x="47" y="24" rx="3" ry="6" width="6" height="12" fill="#1d0e0b">
    <animate attributeName="opacity" values="1;0" keyTimes="0;1" dur="2.6315789473684212s" begin="-1.3157894736842104s" repeatCount="indefinite"></animate>
  </rect>
</g><g transform="rotate(180 50 50)">
  <rect x="47" y="24" rx="3" ry="6" width="6" height="12" fill="#1d0e0b">
    <animate attributeName="opacity" values="1;0" keyTimes="0;1" dur="2.6315789473684212s" begin="-1.0964912280701753s" repeatCount="indefinite"></animate>
  </rect>
</g><g transform="rotate(210 50 50)">
  <rect x="47" y="24" rx="3" ry="6" width="6" height="12" fill="#1d0e0b">
    <animate attributeName="opacity" values="1;0" keyTimes="0;1" dur="2.6315789473684212s" begin="-0.8771929824561403s" repeatCount="indefinite"></animate>
  </rect>
</g><g transform="rotate(240 50 50)">
  <rect x="47" y="24" rx="3" ry="6" width="6" height="12" fill="#1d0e0b">
    <animate attributeName="opacity" values="1;0" keyTimes="0;1" dur="2.6315789473684212s" begin="-0.6578947368421052s" repeatCount="indefinite"></animate>
  </rect>
</g><g transform="rotate(270 50 50)">
  <rect x="47" y="24" rx="3" ry="6" width="6" height="12" fill="#1d0e0b">
    <animate attributeName="opacity" values="1;0" keyTimes="0;1" dur="2.6315789473684212s" begin="-0.43859649122807015s" repeatCount="indefinite"></animate>
  </rect>
</g><g transform="rotate(300 50 50)">
  <rect x="47" y="24" rx="3" ry="6" width="6" height="12" fill="#1d0e0b">
    <animate attributeName="opacity" values="1;0" keyTimes="0;1" dur="2.6315789473684212s" begin="-0.21929824561403508s" repeatCount="indefinite"></animate>
  </rect>
</g><g transform="rotate(330 50 50)">
  <rect x="47" y="24" rx="3" ry="6" width="6" height="12" fill="#1d0e0b">
    <animate attributeName="opacity" values="1;0" keyTimes="0;1" dur="2.6315789473684212s" begin="0s" repeatCount="indefinite"></animate>
  </rect>
</g>
<!-- [ldio] generated by https://loading.io/ --></svg>